# xmcd
#
# Track frame offsets:
#	182
#	12425
#	25580
#	40210
#	54785
#	73160
#	98862
#	114637
#	133635
#	147485
#	173742
#	185675
#	202112
#	217597
#	235747
#	250600
#	259767
#	281300
#	298767
#	312575
#
# Disc length: 4385 seconds
# Revision: 2
# Processed by: cddbd v1.5.2PL0 Copyright (c) Steve Scherf et al.
# Submitted via: dBpowerAMP V12.0
#
DISCID=25111f14
DTITLE=The John Dummer Blues Band - Cabal
DYEAR=1969
DGENRE=Blues
TTITLE0=I Need Love
TTITLE1=Just a Feeling
TTITLE2=No Chance With You
TTITLE3=Young Fashioned Ways
TTITLE4=Sitting and Thinking
TTITLE5=Low Down Santa Fe
TTITLE6=When You Got a Good Friend
TTITLE7=Welfare Blues
TTITLE8=Hound Dog
TTITLE9=Blue Guitar
TTITLE10=After Hours
TTITLE11=Daddy Please Don't Cry
TTITLE12=Travelling Man [Bonus]
TTITLE13=40 Days [Bonus]
TTITLE14=Nine by Nine [Bonus]
TTITLE15=Going in the Out [Bonus]
TTITLE16=Medicine Weasel [Bonus]
TTITLE17=The Endgame [Bonus]
TTITLE18=Doblee Dooblee Jubilee [Bonus]
TTITLE19=Monkey Speaks His Mind [Bonus]
EXTD=
EXTT0=
EXTT1=
EXTT2=
EXTT3=
EXTT4=
EXTT5=
EXTT6=
EXTT7=
EXTT8=
EXTT9=
EXTT10=
EXTT11=
EXTT12=
EXTT13=
EXTT14=
EXTT15=
EXTT16=
EXTT17=
EXTT18=
EXTT19=
PLAYORDER=
